<?xml version="1.0" encoding="UTF-8"?>
<svg id="Layer_1" data-name="Layer 1" xmlns="http://www.w3.org/2000/svg" xmlns:xlink="http://www.w3.org/1999/xlink" viewBox="0 0 1432.85 343.73">
  <defs>
    <style>
      .cls-1 {
        fill: url(#linear-gradient-2);
      }

      .cls-2 {
        fill: #fff;
      }

      .cls-3 {
        fill: url(#linear-gradient);
      }
    </style>
    <linearGradient id="linear-gradient" x1="73.92" y1="157.89" x2="496.45" y2="157.89" gradientUnits="userSpaceOnUse">
      <stop offset="0" stop-color="#00c8c8"/>
      <stop offset="1" stop-color="#8723dd"/>
    </linearGradient>
    <linearGradient id="linear-gradient-2" x1="0" y1="157.42" x2="181.68" y2="157.42" xlink:href="#linear-gradient"/>
  </defs>
  <g>
    <path class="cls-2" d="M601.09,97.63l-2.54,20.21h-35.25l-13.38,109.47h-24.61l13.28-109.47h-35.16l2.44-20.21h95.21Z"/>
    <path class="cls-2" d="M635.08,130.35l-11.62,96.97h-24.41l11.62-96.97h24.41Zm5.86-27.83c0,2.08-.44,4.05-1.32,5.91s-2.05,3.48-3.52,4.88c-1.46,1.4-3.12,2.51-4.98,3.32-1.86,.81-3.76,1.22-5.71,1.22s-3.73-.41-5.52-1.22c-1.79-.81-3.37-1.92-4.74-3.32-1.37-1.4-2.47-3.03-3.32-4.88-.85-1.86-1.27-3.82-1.27-5.91s.42-4.07,1.27-5.96c.85-1.89,1.97-3.53,3.37-4.93,1.4-1.4,2.99-2.52,4.79-3.37,1.79-.85,3.66-1.27,5.62-1.27s3.86,.41,5.71,1.22c1.86,.81,3.5,1.94,4.93,3.37,1.43,1.43,2.57,3.08,3.42,4.93,.85,1.86,1.27,3.86,1.27,6.01Z"/>
    <path class="cls-2" d="M711.98,218.97c-2.9,2.38-5.88,4.3-8.94,5.76-3.06,1.46-6.27,2.51-9.62,3.12-3.35,.62-7.08,.93-11.18,.93-5.66,0-10.73-.96-15.19-2.88-4.46-1.92-8.24-4.65-11.33-8.2-3.09-3.55-5.47-7.81-7.13-12.79s-2.49-10.56-2.49-16.75c0-5.27,.57-10.4,1.71-15.38,1.14-4.98,2.78-9.65,4.93-14.01,2.15-4.36,4.75-8.38,7.81-12.06,3.06-3.68,6.49-6.82,10.3-9.42,3.81-2.6,7.94-4.64,12.4-6.1,4.46-1.46,9.16-2.2,14.11-2.2,6.51,0,12.04,1.12,16.6,3.37,4.56,2.25,8.59,5.68,12.11,10.3l-8.01,9.28c-.52,.72-1.17,1.3-1.95,1.76-.78,.46-1.63,.68-2.54,.68-1.11,0-2.1-.31-2.98-.93-.88-.62-1.87-1.28-2.98-2-1.11-.72-2.49-1.38-4.15-2-1.66-.62-3.83-.93-6.49-.93-3.45,0-6.74,.94-9.86,2.83-3.12,1.89-5.89,4.56-8.3,8.01-2.41,3.45-4.33,7.62-5.76,12.5-1.43,4.88-2.15,10.35-2.15,16.41,0,6.9,1.51,12.19,4.54,15.87,3.03,3.68,7.08,5.52,12.16,5.52,3.52,0,6.38-.49,8.59-1.46,2.21-.98,4.1-2.05,5.66-3.22s2.98-2.25,4.25-3.22,2.69-1.46,4.25-1.46c.85,0,1.64,.2,2.39,.59,.75,.39,1.42,.94,2,1.66l6.35,7.62c-3.19,3.52-6.23,6.46-9.13,8.84Z"/>
    <path class="cls-2" d="M770.92,86.99l-9.86,79.88h2.25c1.5,0,2.7-.23,3.61-.68,.91-.45,1.89-1.3,2.93-2.54l23.44-29.1c1.11-1.3,2.28-2.33,3.52-3.08,1.24-.75,2.8-1.12,4.69-1.12h22.17l-29.79,35.64c-1.24,1.43-2.49,2.7-3.76,3.81-1.27,1.11-2.62,2.08-4.05,2.93,1.17,.98,2.21,2.12,3.12,3.42,.91,1.3,1.72,2.73,2.44,4.3l21.88,46.88h-21.58c-1.76,0-3.24-.33-4.44-.98-1.21-.65-2.17-1.76-2.88-3.32l-16.5-36.13c-.72-1.5-1.45-2.47-2.2-2.93-.75-.45-2.04-.68-3.86-.68h-3.03l-5.37,44.04h-24.41l17.19-140.33h24.51Z"/>
    <path class="cls-2" d="M908.52,153.69c0,4.3-.96,8.22-2.88,11.77-1.92,3.55-5.32,6.74-10.21,9.57s-11.54,5.26-19.97,7.28c-8.43,2.02-19.12,3.61-32.08,4.79,0,7.68,1.81,13.36,5.42,17.04,3.61,3.68,9.13,5.52,16.55,5.52,4.69,0,8.54-.52,11.57-1.56,3.03-1.04,5.62-2.2,7.76-3.47s4.05-2.42,5.71-3.47c1.66-1.04,3.5-1.56,5.52-1.56,1.76,0,3.25,.72,4.49,2.15l6.45,7.62c-3.65,3.39-7.19,6.3-10.64,8.74-3.45,2.44-7.02,4.46-10.69,6.05-3.68,1.6-7.55,2.77-11.62,3.52-4.07,.75-8.48,1.12-13.23,1.12-6.25,0-11.93-.98-17.04-2.93-5.11-1.95-9.47-4.74-13.09-8.35s-6.41-7.94-8.4-12.99c-1.99-5.04-2.98-10.69-2.98-16.94,0-7.62,1.32-14.96,3.96-22.02,2.64-7.06,6.38-13.3,11.23-18.7,4.85-5.4,10.71-9.73,17.58-12.99,6.87-3.25,14.57-4.88,23.1-4.88,5.6,0,10.5,.73,14.7,2.2s7.68,3.39,10.45,5.76c2.77,2.38,4.85,5.03,6.25,7.96,1.4,2.93,2.1,5.86,2.1,8.79Zm-34.67-7.52c-3.52,0-6.79,.6-9.81,1.81-3.03,1.21-5.75,2.9-8.15,5.08-2.41,2.18-4.49,4.82-6.25,7.91-1.76,3.09-3.16,6.49-4.2,10.21,8.72-1.04,15.75-2.16,21.09-3.37,5.34-1.2,9.47-2.51,12.4-3.91,2.93-1.4,4.88-2.9,5.86-4.49,.98-1.59,1.46-3.3,1.46-5.13,0-.98-.23-1.94-.68-2.88-.46-.94-1.19-1.81-2.2-2.59-1.01-.78-2.29-1.42-3.86-1.9s-3.45-.73-5.66-.73Z"/>
    <path class="cls-2" d="M1020.23,97.63l-2.54,20.21h-35.25l-13.38,109.47h-24.61l13.28-109.47h-35.16l2.44-20.21h95.21Z"/>
    <path class="cls-2" d="M1090.74,153.69c0,4.3-.96,8.22-2.88,11.77-1.92,3.55-5.32,6.74-10.21,9.57s-11.54,5.26-19.97,7.28c-8.43,2.02-19.12,3.61-32.08,4.79,0,7.68,1.81,13.36,5.42,17.04,3.61,3.68,9.13,5.52,16.55,5.52,4.69,0,8.54-.52,11.57-1.56,3.03-1.04,5.62-2.2,7.76-3.47s4.05-2.42,5.71-3.47c1.66-1.04,3.5-1.56,5.52-1.56,1.76,0,3.25,.72,4.49,2.15l6.45,7.62c-3.65,3.39-7.19,6.3-10.64,8.74-3.45,2.44-7.02,4.46-10.69,6.05-3.68,1.6-7.55,2.77-11.62,3.52-4.07,.75-8.48,1.12-13.23,1.12-6.25,0-11.93-.98-17.04-2.93-5.11-1.95-9.47-4.74-13.09-8.35s-6.41-7.94-8.4-12.99c-1.99-5.04-2.98-10.69-2.98-16.94,0-7.62,1.32-14.96,3.96-22.02,2.64-7.06,6.38-13.3,11.23-18.7,4.85-5.4,10.71-9.73,17.58-12.99,6.87-3.25,14.57-4.88,23.1-4.88,5.6,0,10.5,.73,14.7,2.2s7.68,3.39,10.45,5.76c2.77,2.38,4.85,5.03,6.25,7.96,1.4,2.93,2.1,5.86,2.1,8.79Zm-34.67-7.52c-3.52,0-6.79,.6-9.81,1.81-3.03,1.21-5.75,2.9-8.15,5.08-2.41,2.18-4.49,4.82-6.25,7.91-1.76,3.09-3.16,6.49-4.2,10.21,8.72-1.04,15.75-2.16,21.09-3.37,5.34-1.2,9.47-2.51,12.4-3.91,2.93-1.4,4.88-2.9,5.86-4.49,.98-1.59,1.46-3.3,1.46-5.13,0-.98-.23-1.94-.68-2.88-.46-.94-1.19-1.81-2.2-2.59-1.01-.78-2.29-1.42-3.86-1.9s-3.45-.73-5.66-.73Z"/>
    <path class="cls-2" d="M1165.21,218.97c-2.9,2.38-5.88,4.3-8.94,5.76-3.06,1.46-6.27,2.51-9.62,3.12-3.35,.62-7.08,.93-11.18,.93-5.66,0-10.73-.96-15.19-2.88-4.46-1.92-8.24-4.65-11.33-8.2-3.09-3.55-5.47-7.81-7.13-12.79s-2.49-10.56-2.49-16.75c0-5.27,.57-10.4,1.71-15.38,1.14-4.98,2.78-9.65,4.93-14.01,2.15-4.36,4.75-8.38,7.81-12.06,3.06-3.68,6.49-6.82,10.3-9.42,3.81-2.6,7.94-4.64,12.4-6.1,4.46-1.46,9.16-2.2,14.11-2.2,6.51,0,12.04,1.12,16.6,3.37,4.56,2.25,8.59,5.68,12.11,10.3l-8.01,9.28c-.52,.72-1.17,1.3-1.95,1.76-.78,.46-1.63,.68-2.54,.68-1.11,0-2.1-.31-2.98-.93-.88-.62-1.87-1.28-2.98-2-1.11-.72-2.49-1.38-4.15-2-1.66-.62-3.83-.93-6.49-.93-3.45,0-6.74,.94-9.86,2.83-3.12,1.89-5.89,4.56-8.3,8.01-2.41,3.45-4.33,7.62-5.76,12.5-1.43,4.88-2.15,10.35-2.15,16.41,0,6.9,1.51,12.19,4.54,15.87,3.03,3.68,7.08,5.52,12.16,5.52,3.52,0,6.38-.49,8.59-1.46,2.21-.98,4.1-2.05,5.66-3.22s2.98-2.25,4.25-3.22,2.69-1.46,4.25-1.46c.85,0,1.64,.2,2.39,.59,.75,.39,1.42,.94,2,1.66l6.35,7.62c-3.19,3.52-6.23,6.46-9.13,8.84Z"/>
    <path class="cls-2" d="M1182.83,227.32l16.89-140.33h24.8l-7.23,59.18c4.75-5.86,9.91-10.21,15.48-13.04s11.28-4.25,17.14-4.25c4.17,0,7.93,.81,11.28,2.44,3.35,1.63,6.12,4,8.3,7.13,2.18,3.12,3.71,6.97,4.59,11.52,.88,4.56,.96,9.77,.24,15.62l-7.32,61.72h-24.71l7.23-61.72c.78-5.99,.46-10.27-.98-12.84-1.43-2.57-4.1-3.86-8.01-3.86-2.41,0-4.9,.67-7.47,2-2.57,1.33-5.06,3.22-7.47,5.66-2.41,2.44-4.66,5.37-6.74,8.79-2.08,3.42-3.84,7.24-5.27,11.47l-6.05,50.49h-24.71Z"/>
  </g>
  <g>
    <path class="cls-2" d="M1201.31,328.89c0-2.02,.37-3.94,1.12-5.76,.75-1.82,1.79-3.38,3.12-4.69,1.33-1.3,2.91-2.34,4.74-3.12,1.82-.78,3.78-1.17,5.86-1.17s4.04,.39,5.86,1.17c1.82,.78,3.4,1.82,4.74,3.12,1.33,1.3,2.39,2.87,3.17,4.69,.78,1.82,1.17,3.74,1.17,5.76s-.39,4.04-1.17,5.86c-.78,1.82-1.84,3.39-3.17,4.69-1.33,1.3-2.91,2.33-4.74,3.08-1.82,.75-3.78,1.12-5.86,1.12s-4.04-.38-5.86-1.12c-1.82-.75-3.4-1.77-4.74-3.08-1.33-1.3-2.38-2.86-3.12-4.69-.75-1.82-1.12-3.77-1.12-5.86Z"/>
    <path class="cls-2" d="M1320.84,342.26c-3.12,0-5.27-.8-6.45-2.39-1.17-1.59-1.69-3.53-1.56-5.81l.59-12.3c-4.75,6.77-10.11,12.13-16.06,16.06-5.96,3.94-12.29,5.91-18.99,5.91-4.23,0-8.06-.73-11.47-2.2s-6.33-3.69-8.74-6.69c-2.41-2.99-4.28-6.8-5.62-11.43-1.33-4.62-2-10.06-2-16.31,0-5.53,.59-10.94,1.76-16.21s2.82-10.25,4.93-14.94c2.12-4.69,4.67-9,7.67-12.94,2.99-3.94,6.28-7.32,9.86-10.16,3.58-2.83,7.44-5.04,11.57-6.64,4.13-1.59,8.41-2.39,12.84-2.39s8.54,.77,12.16,2.29c3.61,1.53,6.79,3.63,9.52,6.3l6.25-50.49h24.32l-17.38,140.33h-13.18Zm-32.81-17.97c2.6,0,5.26-.88,7.96-2.64,2.7-1.76,5.31-4.18,7.81-7.28,2.51-3.09,4.82-6.7,6.93-10.84,2.12-4.13,3.92-8.58,5.42-13.33l2.73-21.88c-2.21-2.08-4.7-3.56-7.47-4.44-2.77-.88-5.52-1.32-8.25-1.32-4.23,0-8.06,1.24-11.47,3.71-3.42,2.48-6.36,5.7-8.84,9.67-2.47,3.97-4.38,8.46-5.71,13.48-1.33,5.01-2,10.09-2,15.23,0,6.71,1.14,11.65,3.42,14.84,2.28,3.19,5.44,4.79,9.47,4.79Z"/>
    <path class="cls-2" d="M1431.68,255.45c-.2,1.76-.68,3.47-1.46,5.13s-1.66,3.08-2.64,4.25l-44.14,58.5h39.06l-2.34,18.95h-68.36l1.37-10.35c.13-1.11,.55-2.44,1.27-4,.72-1.56,1.63-3.03,2.73-4.39l44.34-59.28h-37.89l2.44-18.95h66.8l-1.17,10.16Z"/>
  </g>
  <g>
    <path class="cls-3" d="M496.45,79.8c-36.01,28.86-266.48,213.6-275.24,220.37-13.24,10.21-29.1,15.6-45.86,15.6s-34.04-5.96-47.37-16.79c-9.48-10.99-13.91-16.12-16.46-18.52l-37.6-46.75c6.36,2.41,13.05,4.07,19.93,4.92,3.54,.45,7.22,.68,10.9,.68,.72,0,1.43-.01,2.15-.03,15.96-.39,31.42-5.1,44.83-13.7l.5-.3,.06-.06,.04-.03c4.88-3.18,9.47-6.89,13.67-11.03l5.22-4.2L432.26,0l14.63,18.19c-4.17,5.14-6.48,11.57-6.48,18.32,0,16.06,13.07,29.13,29.13,29.13,4.54,0,9.01-1.07,13.04-3.08l13.87,17.24Z"/>
    <path class="cls-1" d="M167.91,204.6c2.57-3.15,4.88-6.5,6.91-10.02L91.25,90.96l-17.93,14.42c2.05,4.05,3.14,8.56,3.14,13.13,0,16.06-16.07,25.13-32.13,25.13-5.61,0-11.05-1.6-15.69-4.6-.95-.59-1.85-1.25-2.71-1.95l-17.49,14.07,43.61,54.22c12.25,14.62,29.37,23.96,48.2,26.31,2.49,.32,5.06,.5,7.65,.55-.75,.02-1.49,.03-2.24,.03-3.44,0-6.84-.21-10.16-.63-20.86-2.6-39.26-13.12-52.09-28.45l9.96,12.38c-2.1-2.02-4.09-4.15-5.96-6.38l-1.95-2.42L0,150.23l26.34-21.19c1.56,1.93,3.42,3.6,5.51,4.93,3.6,2.32,7.88,3.66,12.48,3.66,12.77,0,26.13-6.35,26.13-19.13,0-5.47-1.9-10.49-5.08-14.44l26.7-21.47s.08-.02,.12-.03l68.06,84.34,21.42,26.63-13.77,11.07Z"/>
  </g>
</svg>