<?xml version="1.0" encoding="utf-8"?>
<!-- Generator: Adobe Illustrator 26.5.0, SVG Export Plug-In . SVG Version: 6.00 Build 0)  -->
<svg version="1.1" id="Layer_1" xmlns="http://www.w3.org/2000/svg" xmlns:xlink="http://www.w3.org/1999/xlink" x="0px" y="0px"
	 viewBox="0 0 800 800" style="enable-background:new 0 0 800 800;" xml:space="preserve">
<style type="text/css">
	.st0{fill:#F9F9F9;}
	.st1{fill:url(#SVGID_1_);}
	.st2{fill:url(#SVGID_00000170263314199895143750000004986846690235306415_);}
</style>
<rect class="st0" width="800" height="800"/>
<g>
	<linearGradient id="SVGID_1_" gradientUnits="userSpaceOnUse" x1="157.1172" y1="378.2712" x2="746.5085" y2="378.2712">
		<stop  offset="0" style="stop-color:#00C8C8"/>
		<stop  offset="1" style="stop-color:#8723DD"/>
	</linearGradient>
	<path class="st1" d="M746.51,269.35c-50.23,40.26-371.72,297.95-383.93,307.4c-18.47,14.24-40.59,21.76-63.97,21.76
		c-24.03,0-47.48-8.31-66.08-23.42c-13.22-15.33-19.4-22.49-22.96-25.83l-52.45-65.21c8.87,3.36,18.2,5.68,27.8,6.86
		c4.94,0.63,10.07,0.95,15.2,0.95c1,0,1.99-0.01,3-0.04c22.26-0.54,43.83-7.11,62.53-19.11l0.7-0.42l0.08-0.08l0.06-0.04
		c6.81-4.44,13.21-9.61,19.07-15.39l7.28-5.86l364.13-292.88l20.41,25.37c-5.82,7.17-9.04,16.14-9.04,25.55
		c0,22.4,18.23,40.63,40.63,40.63c6.33,0,12.57-1.49,18.19-4.3L746.51,269.35z"/>
	
		<linearGradient id="SVGID_00000014620964079578594700000009398250973302940077_" gradientUnits="userSpaceOnUse" x1="54" y1="377.6156" x2="307.4272" y2="377.6156">
		<stop  offset="0" style="stop-color:#00C8C8"/>
		<stop  offset="1" style="stop-color:#8723DD"/>
	</linearGradient>
	<path style="fill:url(#SVGID_00000014620964079578594700000009398250973302940077_);" d="M288.22,443.44
		c3.58-4.39,6.81-9.07,9.64-13.98L181.29,284.91l-25.01,20.11c2.86,5.65,4.38,11.94,4.38,18.32c0,22.4-22.42,35.05-44.82,35.05
		c-7.83,0-15.41-2.23-21.89-6.42c-1.33-0.82-2.58-1.74-3.78-2.72l-24.4,19.63l60.83,75.63c17.09,20.39,40.97,33.42,67.23,36.7
		c3.47,0.45,7.06,0.7,10.67,0.77c-1.05,0.03-2.08,0.04-3.12,0.04c-4.8,0-9.54-0.29-14.17-0.88c-29.1-3.63-54.76-18.3-72.66-39.69
		l13.89,17.27c-2.93-2.82-5.71-5.79-8.31-8.9l-2.72-3.38L54,367.6l36.74-29.56c2.18,2.69,4.77,5.02,7.69,6.88
		c5.02,3.24,10.99,5.11,17.41,5.11c17.81,0,36.45-8.86,36.45-26.68c0-7.63-2.65-14.63-7.09-20.14l37.24-29.95
		c0.06-0.03,0.11-0.03,0.17-0.04l94.94,117.65L307.43,428L288.22,443.44z"/>
</g>
</svg>
